<?xml version="1.0" encoding="utf-8"?>
<!-- Generator: Adobe Illustrator 25.4.1, SVG Export Plug-In . SVG Version: 6.00 Build 0)  -->
<svg version="1.1" id="Layer_1" xmlns="http://www.w3.org/2000/svg" xmlns:xlink="http://www.w3.org/1999/xlink" x="0px" y="0px"
	 viewBox="0 0 194.59 26.75" enable-background="new 0 0 194.59 26.75" xml:space="preserve">
<g enable-background="new    ">
	<path d="M18.64,15.26c-1.92,2.92-3.82,4.38-5.7,4.38c-1.07,0-2.27-0.26-3.59-0.79s-2.56-1.19-3.71-1.97s-2.2-1.63-3.13-2.54
		c-0.94-0.91-1.62-1.74-2.03-2.49c-0.54-0.98-0.61-1.77-0.22-2.37c0.47-0.72,1.54-1.01,3.21-0.88C4.49,8.66,5.61,8.84,6.84,9.1
		c1.22,0.26,2.52,0.61,3.88,1.03c1.36,0.43,2.6,0.84,3.73,1.25c1.13,0.41,2.42,0.88,3.85,1.43c0.21,0.08,0.42,0.08,0.62,0
		s0.36-0.22,0.47-0.42c0.43-0.83,0.85-1.73,1.27-2.71c1.31-3.06,2.4-6.19,3.29-9.39c0.05-0.18,0.17-0.28,0.36-0.29
		c0.19-0.02,0.32,0.06,0.39,0.24c0.07,0.18,0.12,0.6,0.14,1.27c0.02,0.67,0.04,1.89,0.05,3.67c0.03,4.38,0.12,7.61,0.29,9.69
		c0.01,0.18,0.07,0.34,0.18,0.47c0.11,0.14,0.25,0.23,0.42,0.29c1.14,0.45,2.32,0.72,3.54,0.83c0.1,0,0.19,0.04,0.27,0.11
		c0.08,0.08,0.12,0.17,0.13,0.27c0,0.11-0.03,0.2-0.1,0.28c-0.08,0.08-0.17,0.12-0.28,0.12c-1.1-0.05-2.17-0.27-3.19-0.66
		c-0.19-0.06-0.36-0.02-0.52,0.11c-0.16,0.13-0.22,0.3-0.19,0.5c0.17,0.99,0.38,1.53,0.62,1.62c0.1,0.04,0.17,0.11,0.22,0.2
		c0.05,0.09,0.06,0.19,0.02,0.29c-0.04,0.1-0.1,0.17-0.2,0.23c-0.1,0.05-0.19,0.06-0.29,0.03c-0.58-0.19-1-1.2-1.25-3.03
		c-0.05-0.34-0.24-0.57-0.57-0.69c-0.78-0.29-1.87-0.71-3.25-1.25c-0.08-0.02-0.2-0.05-0.35-0.08s-0.25-0.06-0.31-0.07
		c-0.06-0.01-0.15-0.02-0.26-0.04c-0.11-0.01-0.2-0.01-0.25,0s-0.13,0.04-0.23,0.08c-0.09,0.04-0.17,0.08-0.24,0.15
		c-0.07,0.07-0.14,0.15-0.23,0.26C18.8,15,18.72,15.12,18.64,15.26z M2.74,9.33c-0.98,0-1.59,0.18-1.83,0.55
		c-0.22,0.34-0.13,0.87,0.25,1.58c0.41,0.76,1.08,1.58,2.01,2.45s1.95,1.67,3.05,2.4c1.1,0.72,2.27,1.33,3.49,1.81
		c1.22,0.49,2.29,0.73,3.23,0.73c1.65,0,3.36-1.39,5.13-4.17c0.15-0.23,0.18-0.48,0.1-0.74c-0.09-0.26-0.26-0.45-0.52-0.55
		c-2.95-1.13-5.6-2.05-7.95-2.76S5.25,9.5,3.4,9.36C3.16,9.34,2.95,9.33,2.74,9.33z M23.81,3.59c-1.06,3.38-2.41,6.64-4.05,9.78
		l0.6,0.24c1.39,0.54,2.4,0.93,3.02,1.16c0.24,0.09,0.46,0.06,0.67-0.1c0.21-0.15,0.31-0.36,0.29-0.62
		c-0.12-1.93-0.2-4.88-0.23-8.87c0-0.69-0.01-1.2-0.02-1.51c0-0.11-0.02-0.19-0.05-0.24c-0.04-0.05-0.08-0.06-0.12-0.04
		C23.88,3.41,23.84,3.48,23.81,3.59z"/>
	<path d="M40.57,15.84c0.1,0,0.2,0.04,0.28,0.11s0.12,0.17,0.12,0.28c0,0.11-0.04,0.21-0.12,0.29c-0.13,0.12-0.28,0.26-0.46,0.42
		c-0.17,0.16-0.52,0.44-1.02,0.83s-1,0.73-1.48,1.02c-0.49,0.29-1.06,0.55-1.71,0.79c-0.66,0.23-1.27,0.35-1.84,0.35
		c-0.37,0-0.73-0.05-1.08-0.15c-0.65-0.19-1.19-0.58-1.63-1.18c-0.44-0.6-0.75-1.36-0.95-2.3c-0.02-0.05-0.03-0.1-0.03-0.15
		c-0.09-0.49-0.15-0.98-0.18-1.48c-0.06-1.08,0-2.22,0.18-3.42c0.18-1.2,0.47-2.26,0.86-3.19c0.39-0.93,0.83-1.5,1.32-1.71
		c0.21-0.09,0.43-0.11,0.66-0.04c0.23,0.06,0.41,0.18,0.55,0.36c0.21,0.22,0.33,0.55,0.35,0.99c0.02,0.44-0.03,0.95-0.17,1.51
		c-0.13,0.57-0.29,1.15-0.48,1.74s-0.42,1.21-0.7,1.86c-0.28,0.65-0.52,1.2-0.73,1.65c-0.21,0.45-0.41,0.89-0.62,1.32
		c-0.16,0.33-0.19,0.67-0.09,1c0.37,1.26,0.99,2.03,1.88,2.29c0.28,0.12,0.6,0.16,0.97,0.11c0.36-0.04,0.71-0.1,1.02-0.16
		c0.31-0.07,0.65-0.19,1.02-0.37c0.36-0.18,0.69-0.35,0.98-0.5c0.28-0.16,0.58-0.35,0.9-0.57s0.57-0.42,0.77-0.58
		c0.2-0.16,0.4-0.33,0.6-0.5c0.2-0.17,0.33-0.29,0.4-0.35c0.06-0.06,0.12-0.11,0.16-0.15C40.37,15.88,40.47,15.84,40.57,15.84z
		 M31.31,14.43c0.01,0.07,0.04,0.12,0.1,0.14c0.06,0.03,0.11,0.01,0.15-0.05c0.27-0.43,0.59-1.19,0.97-2.29s0.67-2.16,0.88-3.2
		s0.23-1.66,0.05-1.85c-0.09-0.1-0.18-0.15-0.25-0.15c-0.03,0-0.06,0-0.09,0.01c-0.25,0.11-0.55,0.59-0.9,1.45
		c-0.35,0.86-0.63,1.86-0.83,3.02C31.19,12.68,31.16,13.65,31.31,14.43z"/>
	<path d="M50.72,15.42c0.11,0,0.2,0.04,0.28,0.12s0.12,0.17,0.12,0.29c0,0.11-0.04,0.2-0.12,0.27c-0.61,0.61-1.29,1.11-2.03,1.51
		c-0.75,0.39-1.47,0.67-2.18,0.82c-0.71,0.15-1.38,0.22-2.02,0.22c-0.64,0-1.2-0.08-1.7-0.23c-0.07-0.02-0.12,0-0.16,0.07
		c-0.13,0.3-0.33,0.54-0.59,0.72c-0.27,0.18-0.56,0.27-0.89,0.28c-0.33,0-0.64-0.08-0.92-0.24c-0.38-0.18-0.65-0.46-0.81-0.84
		c-0.16-0.38-0.17-0.77-0.04-1.17c0.13-0.52,0.41-0.99,0.83-1.42c0.42-0.43,0.81-0.64,1.19-0.64h0.01c0.11,0,0.2,0.04,0.28,0.12
		c0.07,0.08,0.11,0.17,0.11,0.28c0,0.1-0.04,0.19-0.12,0.27s-0.17,0.11-0.28,0.11c-0.16,0-0.39,0.16-0.68,0.47
		c-0.29,0.32-0.48,0.65-0.58,1.01c-0.08,0.22-0.07,0.44,0.02,0.65c0.09,0.22,0.24,0.37,0.45,0.46c0.18,0.14,0.38,0.2,0.6,0.17
		c0.22-0.02,0.4-0.12,0.54-0.29c0.2-0.22,0.24-0.38,0.12-0.46c-0.28-0.18-0.46-0.44-0.52-0.77c-0.07-0.33-0.02-0.63,0.17-0.92
		c0.39-0.66,0.78-0.88,1.17-0.64c0.19,0.11,0.31,0.33,0.38,0.66s0.05,0.67-0.02,1.04c-0.02,0.09,0,0.18,0.06,0.26
		c0.06,0.09,0.14,0.14,0.23,0.16c1.26,0.21,2.5,0.12,3.71-0.27c1.21-0.39,2.26-1.04,3.17-1.93C50.52,15.46,50.61,15.42,50.72,15.42z
		 M42.52,17.24c0.04-0.24,0.05-0.48,0.03-0.73c-0.04,0.07-0.07,0.12-0.1,0.17c-0.06,0.09-0.08,0.19-0.07,0.3
		C42.38,17.08,42.43,17.17,42.52,17.24z"/>
	<path d="M50.56,14.57c-0.2,0-0.32-0.1-0.38-0.3c-0.05-0.2,0.02-0.35,0.2-0.45c0.28-0.14,0.53-0.32,0.75-0.55
		c0.08-0.08,0.17-0.12,0.28-0.12s0.2,0.04,0.28,0.11c0.08,0.08,0.12,0.17,0.13,0.27c0,0.1-0.03,0.2-0.11,0.28
		c-0.28,0.29-0.6,0.53-0.94,0.71C50.69,14.55,50.62,14.57,50.56,14.57z M59.86,15.63c0.1,0,0.2,0.04,0.28,0.11s0.12,0.17,0.12,0.28
		c0,0.11-0.04,0.21-0.1,0.29c-0.12,0.12-0.28,0.27-0.46,0.44c-0.19,0.18-0.54,0.46-1.04,0.86c-0.51,0.39-1.01,0.75-1.51,1.05
		s-1.09,0.58-1.77,0.82s-1.32,0.36-1.92,0.36c-0.92,0.01-1.75-0.26-2.48-0.81c-0.28-0.2-0.48-0.46-0.6-0.79
		c-0.12-0.33-0.18-0.63-0.17-0.92c0.01-0.28,0.06-0.58,0.15-0.9c0.09-0.32,0.16-0.54,0.22-0.68c0.06-0.13,0.1-0.23,0.14-0.31
		c0.06-0.09,0.14-0.15,0.24-0.18c0.1-0.03,0.2-0.02,0.29,0.03c0.09,0.05,0.16,0.12,0.19,0.23c0.04,0.1,0.03,0.19-0.02,0.29
		c-0.02,0.05-0.05,0.12-0.1,0.22c-0.04,0.1-0.1,0.26-0.18,0.5c-0.08,0.24-0.12,0.46-0.14,0.67s0,0.43,0.07,0.67
		c0.06,0.23,0.19,0.42,0.37,0.55c0.44,0.32,0.93,0.52,1.47,0.59s1.06,0.05,1.55-0.07s1-0.31,1.53-0.56s0.98-0.52,1.38-0.79
		c0.4-0.27,0.77-0.55,1.14-0.85s0.62-0.52,0.77-0.67c0.15-0.14,0.25-0.24,0.3-0.29C59.66,15.67,59.76,15.63,59.86,15.63z"/>
	<path d="M69.53,15.53c0.11,0,0.2,0.04,0.28,0.11c0.08,0.07,0.11,0.17,0.11,0.28s-0.04,0.21-0.1,0.29c-0.87,0.87-2,1.62-3.39,2.26
		c-1.39,0.64-2.69,0.96-3.9,0.96c-0.26,0-0.51-0.01-0.75-0.04c-0.5-0.04-0.96-0.19-1.38-0.46c-0.42-0.26-0.75-0.61-1-1.04
		c-0.05-0.09-0.06-0.18-0.04-0.29c0.03-0.1,0.08-0.18,0.17-0.24c0.09-0.06,0.19-0.08,0.29-0.05c0.11,0.02,0.19,0.08,0.25,0.17
		c0.33,0.44,0.76,0.72,1.3,0.83c0.53,0.12,1.04,0.04,1.52-0.23c0.21-0.12,0.34-0.3,0.38-0.53c0.04-0.23-0.02-0.44-0.19-0.62
		s-0.36-0.33-0.57-0.46c-0.42-0.25-0.77-0.57-1.05-0.96c-0.04-0.07-0.1-0.11-0.18-0.12c-0.08-0.01-0.15,0.01-0.2,0.06l-1.14,1.08
		c-0.11,0.1-0.24,0.13-0.39,0.09c-0.15-0.04-0.24-0.13-0.28-0.29c-0.04-0.15,0.01-0.28,0.13-0.39l2.29-2.16
		c0.26-0.31,0.55-0.58,0.88-0.83c0.08-0.06,0.17-0.08,0.28-0.07s0.19,0.05,0.26,0.13s0.1,0.17,0.09,0.28
		c-0.01,0.11-0.05,0.19-0.12,0.26l-0.83,0.76c-0.13,0.15-0.2,0.33-0.21,0.53c0,0.16,0.08,0.31,0.23,0.46
		c0.16,0.15,0.38,0.32,0.67,0.52c0.31,0.18,0.58,0.41,0.79,0.69c0.17,0.24,0.27,0.51,0.29,0.8c0.02,0.29-0.03,0.57-0.17,0.83
		c-0.04,0.08-0.03,0.16,0.02,0.22c0.06,0.07,0.13,0.1,0.22,0.08c1.96-0.47,3.67-1.4,5.15-2.79C69.33,15.57,69.42,15.53,69.53,15.53z
		"/>
	<path d="M69.34,14.57c-0.2,0-0.32-0.1-0.38-0.3c-0.05-0.2,0.02-0.35,0.2-0.45c0.28-0.14,0.53-0.32,0.75-0.55
		c0.08-0.08,0.17-0.12,0.28-0.12s0.2,0.04,0.28,0.11c0.08,0.08,0.12,0.17,0.13,0.27c0,0.1-0.03,0.2-0.11,0.28
		c-0.28,0.29-0.6,0.53-0.94,0.71C69.47,14.55,69.41,14.57,69.34,14.57z M78.64,15.63c0.1,0,0.2,0.04,0.28,0.11s0.12,0.17,0.12,0.28
		c0,0.11-0.04,0.21-0.1,0.29c-0.12,0.12-0.28,0.27-0.46,0.44c-0.19,0.18-0.54,0.46-1.04,0.86c-0.51,0.39-1.01,0.75-1.51,1.05
		s-1.09,0.58-1.77,0.82s-1.32,0.36-1.92,0.36c-0.92,0.01-1.75-0.26-2.48-0.81c-0.28-0.2-0.48-0.46-0.6-0.79
		c-0.12-0.33-0.18-0.63-0.17-0.92c0.01-0.28,0.06-0.58,0.15-0.9c0.09-0.32,0.16-0.54,0.22-0.68c0.06-0.13,0.1-0.23,0.14-0.31
		c0.06-0.09,0.14-0.15,0.24-0.18c0.1-0.03,0.2-0.02,0.29,0.03c0.09,0.05,0.16,0.12,0.19,0.23c0.04,0.1,0.03,0.19-0.02,0.29
		c-0.02,0.05-0.05,0.12-0.1,0.22c-0.04,0.1-0.1,0.26-0.18,0.5c-0.08,0.24-0.12,0.46-0.14,0.67s0,0.43,0.07,0.67
		c0.06,0.23,0.19,0.42,0.37,0.55c0.44,0.32,0.93,0.52,1.47,0.59s1.06,0.05,1.55-0.07s1-0.31,1.53-0.56s0.98-0.52,1.38-0.79
		c0.4-0.27,0.77-0.55,1.14-0.85s0.62-0.52,0.77-0.67c0.15-0.14,0.25-0.24,0.3-0.29C78.45,15.67,78.54,15.63,78.64,15.63z"/>
	<path d="M91.15,15.48c0.11,0,0.21,0.03,0.29,0.1c0.08,0.08,0.12,0.17,0.12,0.28c0,0.11-0.04,0.21-0.1,0.29
		c-0.54,0.56-1.19,1.12-1.96,1.67c-0.76,0.55-1.63,1.04-2.6,1.46c-0.97,0.42-1.85,0.62-2.62,0.62h-0.03
		c-0.87,0.03-1.6-0.27-2.19-0.9c-0.25-0.28-0.4-0.61-0.45-0.98c-0.02-0.14-0.1-0.23-0.23-0.27c-0.13-0.04-0.25-0.01-0.35,0.09
		c-1.19,1.24-2.12,1.66-2.8,1.25c-0.24-0.14-0.38-0.37-0.43-0.68c-0.04-0.32,0-0.67,0.13-1.06c0.13-0.39,0.26-0.73,0.4-1.02
		c0.14-0.29,0.28-0.58,0.44-0.87c0.06-0.09,0.14-0.15,0.24-0.17c0.1-0.02,0.19-0.01,0.29,0.04c0.09,0.05,0.15,0.13,0.18,0.23
		c0.03,0.1,0.02,0.2-0.01,0.3c-0.24,0.41-0.44,0.82-0.59,1.21c-0.16,0.4-0.25,0.71-0.27,0.92s-0.01,0.36,0.04,0.43
		c0.25,0.15,0.72-0.09,1.4-0.72s1.33-1.38,1.93-2.26c0.06-0.09,0.14-0.14,0.23-0.17c0.09-0.02,0.19-0.01,0.28,0.04
		c0.09,0.04,0.15,0.11,0.19,0.2s0.04,0.18,0.01,0.27c-0.08,0.23-0.15,0.5-0.22,0.8s-0.09,0.65-0.07,1.04
		c0.01,0.39,0.1,0.68,0.26,0.86c0.45,0.45,0.99,0.67,1.62,0.64h0.03c0.7,0,1.5-0.2,2.39-0.6c0.9-0.4,1.7-0.86,2.42-1.37
		c0.71-0.52,1.31-1.03,1.79-1.54C90.94,15.52,91.04,15.48,91.15,15.48z"/>
	<path d="M100.63,15.53c0.11,0,0.2,0.04,0.28,0.11c0.08,0.07,0.11,0.17,0.11,0.28s-0.04,0.21-0.1,0.29c-0.87,0.87-2,1.62-3.39,2.26
		c-1.39,0.64-2.69,0.96-3.9,0.96c-0.26,0-0.51-0.01-0.75-0.04c-0.5-0.04-0.96-0.19-1.38-0.46c-0.42-0.26-0.75-0.61-1-1.04
		c-0.05-0.09-0.06-0.18-0.04-0.29c0.03-0.1,0.08-0.18,0.17-0.24c0.09-0.06,0.19-0.08,0.29-0.05c0.11,0.02,0.19,0.08,0.25,0.17
		c0.33,0.44,0.76,0.72,1.3,0.83c0.53,0.12,1.04,0.04,1.52-0.23c0.21-0.12,0.34-0.3,0.38-0.53c0.04-0.23-0.02-0.44-0.19-0.62
		s-0.36-0.33-0.57-0.46c-0.42-0.25-0.77-0.57-1.05-0.96c-0.04-0.07-0.1-0.11-0.18-0.12c-0.08-0.01-0.15,0.01-0.2,0.06l-1.14,1.08
		c-0.11,0.1-0.24,0.13-0.39,0.09c-0.15-0.04-0.24-0.13-0.28-0.29c-0.04-0.15,0.01-0.28,0.13-0.39l2.29-2.16
		c0.26-0.31,0.55-0.58,0.88-0.83c0.08-0.06,0.17-0.08,0.28-0.07s0.19,0.05,0.26,0.13s0.1,0.17,0.09,0.28
		c-0.01,0.11-0.05,0.19-0.12,0.26l-0.83,0.76c-0.13,0.15-0.2,0.33-0.21,0.53c0,0.16,0.08,0.31,0.23,0.46
		c0.16,0.15,0.38,0.32,0.67,0.52c0.31,0.18,0.58,0.41,0.79,0.69c0.17,0.24,0.27,0.51,0.29,0.8c0.02,0.29-0.03,0.57-0.17,0.83
		c-0.04,0.08-0.03,0.16,0.02,0.22c0.06,0.07,0.13,0.1,0.22,0.08c1.96-0.47,3.68-1.4,5.15-2.79
		C100.43,15.57,100.52,15.53,100.63,15.53z"/>
	<path d="M122.65,2.37c0.53,0.37,0.94,0.84,1.23,1.41c0.29,0.57,0.42,1.17,0.41,1.81c0.01,0.71-0.13,1.39-0.42,2.03
		c-0.29,0.65-0.71,1.19-1.25,1.64c-1.28,1.11-3.24,1.81-5.88,2.1c-0.08,0.01-0.15,0.05-0.22,0.11c-0.06,0.07-0.1,0.14-0.11,0.22
		c-0.02,0.2,0.07,0.33,0.25,0.4c2.21,0.81,3.63,1.73,4.28,2.76c0.45,0.66,0.55,1.37,0.3,2.13c-0.58,1.8-2.5,2.7-5.75,2.7
		c-0.88,0-1.83-0.06-2.84-0.19c-1.01-0.12-1.95-0.28-2.8-0.48c-0.85-0.2-1.49-0.34-1.89-0.45c-0.41-0.1-0.73-0.2-0.97-0.28
		c-0.11-0.03-0.19-0.09-0.24-0.19s-0.06-0.2-0.03-0.3c0.03-0.11,0.09-0.18,0.19-0.23c0.09-0.05,0.2-0.06,0.31-0.03
		c0.52,0.16,1.09,0.32,1.72,0.46c0.62,0.15,1.34,0.3,2.15,0.44c0.81,0.15,1.6,0.26,2.38,0.35c0.77,0.08,1.56,0.12,2.35,0.1
		c0.79-0.02,1.5-0.09,2.12-0.22s1.17-0.36,1.63-0.68s0.76-0.74,0.92-1.24c0.18-0.53,0.11-1.02-0.2-1.47c-0.83-1.32-3.17-2.44-7-3.36
		c-0.13-0.03-0.25-0.01-0.36,0.05c-0.11,0.06-0.18,0.16-0.22,0.29c-0.51,1.78-1.12,3.53-1.83,5.24c-0.05,0.1-0.12,0.17-0.23,0.2
		c-0.1,0.04-0.2,0.03-0.3-0.01c-0.1-0.04-0.17-0.12-0.2-0.22c-0.04-0.11-0.03-0.21,0.02-0.31c0.68-1.63,1.26-3.29,1.74-4.98
		c0.04-0.14,0.02-0.27-0.05-0.4s-0.18-0.2-0.32-0.23c-0.55-0.11-1.03-0.2-1.44-0.25c-0.11-0.01-0.2-0.06-0.26-0.15
		c-0.06-0.09-0.09-0.19-0.07-0.29c0.01-0.11,0.06-0.19,0.15-0.25c0.08-0.07,0.18-0.09,0.29-0.08c0.47,0.06,1.06,0.12,1.77,0.17
		c0.11,0,0.21-0.03,0.31-0.1c0.09-0.06,0.16-0.15,0.2-0.26c0.35-1.18,0.83-2.87,1.46-5.08c0.04-0.15,0.14-0.24,0.29-0.28
		c0.15-0.04,0.28,0,0.38,0.11c0.1,0.12,0.14,0.24,0.1,0.38c-0.4,1.44-0.85,2.99-1.33,4.65c-0.05,0.16-0.03,0.31,0.07,0.44
		c0.1,0.13,0.23,0.19,0.39,0.19c3.94,0.01,6.7-0.67,8.28-2.05c0.46-0.38,0.81-0.84,1.06-1.38s0.36-1.11,0.34-1.71
		c0.02-0.51-0.09-0.99-0.32-1.45c-0.24-0.45-0.56-0.83-0.98-1.12c-0.55-0.4-1.26-0.71-2.13-0.92c-0.87-0.22-1.76-0.33-2.66-0.34
		s-1.78,0.04-2.63,0.16c-0.85,0.12-1.59,0.28-2.23,0.49c-0.97,0.32-1.84,0.7-2.62,1.13c-0.78,0.44-1.39,0.87-1.85,1.3
		c-0.46,0.44-0.8,0.84-1.05,1.22s-0.38,0.71-0.41,1c-0.07,0.27,0.01,0.49,0.24,0.64c0.13,0.09,0.32,0.14,0.56,0.14
		c0.24,0,0.53-0.04,0.87-0.13c0.34-0.08,0.75-0.25,1.23-0.48c0.48-0.24,0.99-0.53,1.53-0.89c0.09-0.06,0.19-0.08,0.3-0.05
		c0.11,0.03,0.2,0.08,0.25,0.17c0.06,0.09,0.08,0.19,0.05,0.29c-0.03,0.11-0.08,0.19-0.17,0.25c-1.11,0.74-2.1,1.23-2.98,1.47
		c-0.88,0.24-1.57,0.21-2.06-0.09c-0.23-0.15-0.4-0.35-0.51-0.61c-0.11-0.26-0.14-0.52-0.1-0.8c0.05-0.41,0.22-0.85,0.52-1.31
		s0.7-0.94,1.22-1.41c0.51-0.47,1.18-0.94,2-1.4s1.74-0.86,2.75-1.19c0.69-0.23,1.49-0.4,2.4-0.52c0.91-0.12,1.85-0.17,2.81-0.16
		c0.96,0.01,1.91,0.14,2.84,0.38C121.27,1.59,122.04,1.93,122.65,2.37z"/>
	<path d="M134.72,16.03c0.11,0,0.2,0.05,0.27,0.13c0.07,0.08,0.1,0.17,0.1,0.28c0,0.11-0.05,0.2-0.13,0.27
		c-0.09,0.08-0.21,0.18-0.35,0.31c-0.15,0.12-0.41,0.33-0.79,0.61s-0.76,0.54-1.15,0.76c-0.39,0.23-0.85,0.46-1.38,0.68
		c-0.53,0.22-1.04,0.38-1.53,0.47c-0.49,0.09-1,0.1-1.54,0.02s-1.04-0.26-1.49-0.55c-0.42-0.27-0.75-0.62-1-1.05
		c-0.07-0.12-0.18-0.18-0.32-0.2c-0.15-0.01-0.26,0.04-0.34,0.17c-0.35,0.54-0.73,1-1.15,1.37s-0.8,0.56-1.15,0.57h-0.01
		c-0.18-0.01-0.35-0.07-0.5-0.17c-0.16-0.1-0.27-0.24-0.34-0.41c-0.3-0.75-0.25-1.48,0.14-2.19c0.33-0.69,0.79-1.28,1.39-1.76
		c0.6-0.48,1.27-0.82,2.02-1c0.15-0.04,0.28,0,0.38,0.1c0.11,0.11,0.13,0.24,0.09,0.38c-0.04,0.15-0.14,0.24-0.29,0.28
		c-0.63,0.15-1.2,0.43-1.7,0.83s-0.89,0.9-1.17,1.49c-0.28,0.48-0.33,0.98-0.15,1.5c0.06,0.1,0.11,0.15,0.14,0.15
		c0.17,0.11,0.5-0.2,0.99-0.93c0.49-0.73,0.93-1.52,1.32-2.37c0.08-0.18,0.22-0.26,0.42-0.23c0.19,0.03,0.3,0.14,0.33,0.33
		c0.01,0.05,0.02,0.12,0.04,0.2c0.02,0.09,0.06,0.24,0.13,0.47c0.07,0.22,0.15,0.44,0.24,0.64c0.09,0.2,0.22,0.41,0.39,0.64
		c0.17,0.23,0.35,0.4,0.55,0.53c0.38,0.25,0.81,0.4,1.28,0.45c0.47,0.05,0.93,0.03,1.36-0.08c0.44-0.1,0.89-0.26,1.37-0.47
		c0.48-0.21,0.89-0.43,1.25-0.65c0.35-0.22,0.69-0.45,1.04-0.7c0.34-0.25,0.57-0.43,0.7-0.53c0.12-0.1,0.22-0.19,0.28-0.25
		C134.52,16.06,134.61,16.03,134.72,16.03z"/>
	<path d="M145.01,15.86c0.08,0.07,0.12,0.16,0.13,0.27c0.01,0.11-0.03,0.2-0.11,0.27c-0.68,0.72-1.51,1.13-2.5,1.24
		c-0.99,0.11-1.89-0.12-2.71-0.67c-0.18-0.12-0.35-0.11-0.51,0.04c-0.59,0.58-1.14,1.19-1.65,1.83c-0.05,0.06-0.08,0.12-0.09,0.2
		c-0.27,1.61-0.68,3.19-1.22,4.75c-0.55,1.55-1.06,2.49-1.54,2.81c-0.14,0.1-0.29,0.15-0.45,0.15c-0.21,0-0.38-0.08-0.52-0.23
		c-0.33-0.35-0.48-0.76-0.44-1.25c0.02-0.8,0.35-1.8,0.99-2.99s1.43-2.39,2.38-3.59c0.05-0.07,0.08-0.14,0.09-0.22
		c0.07-0.44,0.12-0.84,0.14-1.2c-0.64,1.24-1.27,1.93-1.89,2.05c-0.44,0.08-0.8-0.05-1.08-0.4c-0.13-0.14-0.21-0.33-0.24-0.56
		c-0.03-0.24-0.02-0.47,0.02-0.71s0.12-0.47,0.22-0.71c0.28-0.75,0.74-1.37,1.38-1.86c0.64-0.49,1.36-0.77,2.16-0.84
		c0.11-0.01,0.21,0.02,0.29,0.09c0.08,0.07,0.13,0.16,0.13,0.27c0,0.11-0.03,0.21-0.1,0.29c-0.07,0.08-0.16,0.13-0.27,0.13
		c-0.65,0.07-1.23,0.3-1.75,0.7c-0.51,0.4-0.89,0.89-1.12,1.49c-0.2,0.38-0.25,0.77-0.15,1.18c0.12,0.13,0.24,0.18,0.35,0.15
		c0.29-0.05,0.62-0.39,1-1.02s0.69-1.29,0.95-1.98c0.06-0.17,0.18-0.25,0.36-0.25s0.3,0.08,0.38,0.24c0.1,0.31,0.15,0.63,0.15,0.96
		c0,0.1,0.01,0.19,0.03,0.27c0.02,0.08,0.05,0.16,0.1,0.22c0.04,0.07,0.12,0.08,0.21,0.04c0.1-0.04,0.21-0.13,0.35-0.28
		c0.06-0.07,0.24-0.25,0.53-0.53c0.14-0.13,0.31-0.2,0.5-0.21c0.2-0.01,0.37,0.04,0.53,0.17c0.66,0.53,1.41,0.77,2.26,0.71
		c0.85-0.05,1.56-0.39,2.15-1.01c0.07-0.08,0.16-0.12,0.27-0.13S144.93,15.78,145.01,15.86z M135.02,25.01
		c0.33-0.66,0.7-1.59,1.1-2.78c0.41-1.2,0.54-1.82,0.41-1.87c-0.1-0.04-0.34,0.27-0.71,0.93c-0.38,0.66-0.74,1.4-1.09,2.23
		c-0.35,0.83-0.53,1.42-0.54,1.77c-0.01,0.4,0.05,0.62,0.18,0.66c0.08,0.02,0.15-0.02,0.22-0.12c0.07-0.1,0.18-0.32,0.34-0.65
		C134.97,25.12,135,25.06,135.02,25.01z"/>
	<path d="M156.37,16.03c0.11,0,0.2,0.05,0.27,0.13c0.07,0.08,0.1,0.17,0.1,0.28c0,0.11-0.05,0.2-0.13,0.27
		c-0.09,0.08-0.21,0.18-0.35,0.31c-0.15,0.12-0.41,0.33-0.79,0.61s-0.76,0.54-1.15,0.76c-0.39,0.23-0.85,0.46-1.38,0.68
		c-0.53,0.22-1.04,0.38-1.53,0.47c-0.49,0.09-1,0.1-1.54,0.02s-1.04-0.26-1.49-0.55c-0.42-0.27-0.75-0.62-1-1.05
		c-0.07-0.12-0.18-0.18-0.32-0.2c-0.15-0.01-0.26,0.04-0.34,0.17c-0.35,0.54-0.73,1-1.15,1.37s-0.8,0.56-1.15,0.57h-0.01
		c-0.18-0.01-0.35-0.07-0.5-0.17c-0.16-0.1-0.27-0.24-0.34-0.41c-0.3-0.75-0.25-1.48,0.14-2.19c0.33-0.69,0.79-1.28,1.39-1.76
		c0.6-0.48,1.27-0.82,2.02-1c0.15-0.04,0.28,0,0.38,0.1c0.11,0.11,0.13,0.24,0.09,0.38c-0.04,0.15-0.14,0.24-0.29,0.28
		c-0.63,0.15-1.2,0.43-1.7,0.83s-0.89,0.9-1.17,1.49c-0.28,0.48-0.33,0.98-0.15,1.5c0.06,0.1,0.11,0.15,0.14,0.15
		c0.17,0.11,0.5-0.2,0.99-0.93c0.49-0.73,0.93-1.52,1.32-2.37c0.08-0.18,0.22-0.26,0.42-0.23c0.19,0.03,0.3,0.14,0.33,0.33
		c0.01,0.05,0.02,0.12,0.04,0.2c0.02,0.09,0.06,0.24,0.13,0.47c0.07,0.22,0.15,0.44,0.24,0.64c0.09,0.2,0.22,0.41,0.39,0.64
		c0.17,0.23,0.35,0.4,0.55,0.53c0.38,0.25,0.81,0.4,1.28,0.45c0.47,0.05,0.93,0.03,1.36-0.08c0.44-0.1,0.89-0.26,1.37-0.47
		c0.48-0.21,0.89-0.43,1.25-0.65c0.35-0.22,0.69-0.45,1.04-0.7c0.34-0.25,0.57-0.43,0.7-0.53c0.12-0.1,0.22-0.19,0.28-0.25
		C156.16,16.06,156.26,16.03,156.37,16.03z"/>
	<path d="M166.48,15.53c0.11,0,0.2,0.04,0.28,0.11c0.08,0.07,0.11,0.17,0.11,0.28s-0.04,0.21-0.1,0.29c-0.87,0.87-2,1.62-3.39,2.26
		c-1.39,0.64-2.69,0.96-3.9,0.96c-0.26,0-0.51-0.01-0.75-0.04c-0.5-0.04-0.96-0.19-1.38-0.46c-0.42-0.26-0.76-0.61-1.01-1.04
		c-0.05-0.09-0.06-0.18-0.04-0.29c0.03-0.1,0.08-0.18,0.17-0.24c0.09-0.06,0.19-0.08,0.29-0.05c0.11,0.02,0.19,0.08,0.25,0.17
		c0.33,0.44,0.76,0.72,1.3,0.83s1.04,0.04,1.52-0.23c0.21-0.12,0.34-0.3,0.38-0.53c0.04-0.23-0.02-0.44-0.19-0.62
		s-0.36-0.33-0.57-0.46c-0.42-0.25-0.77-0.57-1.05-0.96c-0.04-0.07-0.1-0.11-0.18-0.12s-0.15,0.01-0.2,0.06l-1.14,1.08
		c-0.11,0.1-0.24,0.13-0.39,0.09c-0.15-0.04-0.24-0.13-0.28-0.29c-0.03-0.15,0.01-0.28,0.13-0.39l2.29-2.16
		c0.26-0.31,0.55-0.58,0.88-0.83c0.08-0.06,0.17-0.08,0.28-0.07c0.11,0.01,0.19,0.05,0.26,0.13s0.1,0.17,0.09,0.28
		c-0.01,0.11-0.05,0.19-0.12,0.26l-0.82,0.76c-0.13,0.15-0.2,0.33-0.21,0.53c0,0.16,0.08,0.31,0.23,0.46
		c0.15,0.15,0.38,0.32,0.67,0.52c0.31,0.18,0.58,0.41,0.79,0.69c0.17,0.24,0.27,0.51,0.29,0.8c0.02,0.29-0.03,0.57-0.17,0.83
		c-0.04,0.08-0.03,0.16,0.02,0.22c0.05,0.07,0.13,0.1,0.22,0.08c1.96-0.47,3.67-1.4,5.14-2.79
		C166.28,15.57,166.37,15.53,166.48,15.53z"/>
	<path d="M182,19.25c-0.47,0.24-0.97,0.36-1.5,0.36c-0.54,0-1.06-0.12-1.54-0.36c-0.33-0.15-0.61-0.34-0.83-0.57
		c-0.22-0.23-0.38-0.51-0.46-0.84s-0.14-0.65-0.18-0.95c-0.04-0.3-0.01-0.68,0.09-1.15c0.1-0.46,0.19-0.86,0.27-1.18
		s0.22-0.76,0.43-1.31s0.37-0.98,0.5-1.28s0.31-0.74,0.55-1.32c0.19-0.45,0.33-0.79,0.43-1.03c0.1-0.24,0.23-0.56,0.38-0.96
		c0.15-0.4,0.27-0.72,0.34-0.96c0.07-0.24,0.14-0.5,0.2-0.79c0.06-0.29,0.09-0.52,0.08-0.71c-0.01-0.19-0.04-0.35-0.1-0.48
		c-0.11-0.19-0.28-0.29-0.5-0.32c-0.76-0.14-1.59-0.06-2.49,0.24s-1.72,0.77-2.47,1.4c-0.75,0.64-1.29,1.34-1.63,2.11
		c-0.14,0.33-0.24,0.66-0.29,0.99c-0.05,0.33-0.04,0.7,0.01,1.1c0.06,0.41,0.24,0.82,0.53,1.24s0.68,0.83,1.18,1.21
		c0.09,0.06,0.14,0.15,0.16,0.26c0.02,0.11-0.01,0.21-0.07,0.29c-0.07,0.08-0.15,0.13-0.25,0.15c-0.11,0.01-0.2-0.01-0.29-0.07
		c-0.98-0.74-1.62-1.59-1.91-2.55c-0.3-0.96-0.22-1.94,0.23-2.96c0.38-0.88,0.99-1.67,1.82-2.38s1.76-1.22,2.77-1.56
		c1.01-0.33,1.96-0.42,2.85-0.25c0.46,0.06,0.8,0.29,1.04,0.71c0.12,0.21,0.18,0.48,0.19,0.8s-0.02,0.63-0.08,0.93
		s-0.17,0.7-0.35,1.21c-0.18,0.51-0.33,0.92-0.46,1.24c-0.13,0.32-0.33,0.79-0.58,1.43c-0.18,0.42-0.31,0.74-0.41,0.95
		c-0.09,0.21-0.21,0.53-0.38,0.93c-0.16,0.41-0.28,0.73-0.35,0.96c-0.07,0.24-0.17,0.53-0.28,0.89c-0.12,0.36-0.19,0.65-0.23,0.88
		c-0.04,0.22-0.07,0.49-0.11,0.78s-0.04,0.54,0,0.73s0.09,0.39,0.17,0.59s0.17,0.37,0.32,0.51c0.14,0.14,0.31,0.26,0.51,0.36
		c0.37,0.19,0.76,0.29,1.18,0.29s0.82-0.1,1.19-0.29c1.01-0.5,1.97-1.62,2.87-3.37c0.91-1.74,1.65-3.92,2.23-6.52
		c0.02-0.1,0.08-0.18,0.17-0.24c0.09-0.06,0.18-0.08,0.29-0.07c0.1,0.01,0.18,0.06,0.25,0.15c0.07,0.08,0.09,0.18,0.08,0.28
		c-0.08,0.68-0.23,1.69-0.44,3.02c-0.12,0.73-0.21,1.28-0.25,1.66s-0.1,0.86-0.17,1.46c-0.06,0.59-0.08,1.07-0.07,1.41
		c0.02,0.34,0.07,0.7,0.15,1.06c0.08,0.36,0.21,0.64,0.38,0.85c0.39,0.42,0.87,0.62,1.44,0.58c0.55,0,1.08-0.18,1.59-0.55
		s0.96-0.86,1.35-1.49c0.39-0.62,0.73-1.29,1.02-2c0.29-0.71,0.53-1.45,0.72-2.22c0.45-1.8,0.61-3.43,0.46-4.91
		c-0.14-1.47-0.53-2.37-1.18-2.7c-0.14-0.06-0.21-0.17-0.22-0.32c-0.01-0.15,0.05-0.27,0.18-0.36s0.26-0.09,0.39-0.02
		c0.63,0.32,1.08,0.95,1.36,1.9c0.28,0.94,0.38,1.99,0.32,3.12c-0.06,1.13-0.24,2.3-0.54,3.49c-0.17,0.7-0.38,1.37-0.62,2.01
		s-0.53,1.26-0.87,1.87c-0.34,0.61-0.71,1.13-1.09,1.57c-0.39,0.44-0.83,0.79-1.33,1.04s-1.02,0.37-1.54,0.35
		c-0.81,0.03-1.49-0.25-2.03-0.86c-0.58-0.7-0.8-1.9-0.67-3.61c0.01-0.11-0.04-0.18-0.15-0.21c-0.11-0.03-0.19,0-0.24,0.1
		C184.45,17.21,183.29,18.62,182,19.25z"/>
</g>
</svg>
