<?xml version="1.0" encoding="utf-8"?>
<!-- Generator: Adobe Illustrator 25.4.1, SVG Export Plug-In . SVG Version: 6.00 Build 0)  -->
<svg version="1.1" id="Layer_1" xmlns="http://www.w3.org/2000/svg" xmlns:xlink="http://www.w3.org/1999/xlink" x="0px" y="0px"
	 viewBox="0 0 500 500" style="enable-background:new 0 0 500 500;" xml:space="preserve">
<style type="text/css">
	.st0{clip-path:url(#SVGID_00000039815651752348801380000014535669447870593158_);}
	.st1{fill:#39CEFD;}
	.st2{clip-path:url(#SVGID_00000036946264057182437860000006342710304784837295_);fill:#39CEFD;}
	.st3{clip-path:url(#SVGID_00000106835761685974388220000005315829219561577612_);fill:#03569B;}
	
		.st4{clip-path:url(#SVGID_00000054968513387052952070000008928488623076205987_);fill:url(#SVGID_00000178904848769551270860000017471907967670421634_);}
	.st5{clip-path:url(#SVGID_00000084489666957781775110000013450054387189908914_);}
	.st6{fill:#16B9FD;}
	.st7{fill:url(#SVGID_00000030477226564562749900000011952935352522027950_);}
</style>
<g transform="matrix(.061615 0 0 .061615 -1.430818 -1.2754)">
	<g>
		<defs>
			<path id="SVGID_1_" d="M7346.9,3766L5167.7,5946l2179.2,2180H4856.7l-2180-2180l2180-2180H7346.9z M4856.7,30.4L809.3,4077.8
				l1245.5,1245.5L7346.9,30.4C7346.9,30.4,4856.7,30.4,4856.7,30.4z"/>
		</defs>
		<clipPath id="SVGID_00000000905268937986052210000009668422503993620413_">
			<use xlink:href="#SVGID_1_"  style="overflow:visible;"/>
		</clipPath>
		<g style="clip-path:url(#SVGID_00000000905268937986052210000009668422503993620413_);">
			<path class="st1" d="M2677.5,5946l1244.7,1245.5L7346.9,3766H4856.7L2677.5,5946z"/>
		</g>
	</g>
	<g>
		<defs>
			<path id="SVGID_00000018221351220044458750000005055961093929479859_" d="M7346.9,3766L5167.7,5946l2179.2,2180H4856.7
				l-2180-2180l2180-2180H7346.9z M4856.7,30.4L809.3,4077.8l1245.5,1245.5L7346.9,30.4C7346.9,30.4,4856.7,30.4,4856.7,30.4z"/>
		</defs>
		<clipPath id="SVGID_00000134960116885629598610000011274218560857382575_">
			<use xlink:href="#SVGID_00000018221351220044458750000005055961093929479859_"  style="overflow:visible;"/>
		</clipPath>
		<path style="clip-path:url(#SVGID_00000134960116885629598610000011274218560857382575_);fill:#39CEFD;" d="M4856.7,30.4h2490.2
			L2054.8,5323.2L809.3,4077.8L4856.7,30.4z"/>
	</g>
	<g>
		<defs>
			<path id="SVGID_00000078761722045438482950000010783853824448601237_" d="M7346.9,3766L5167.7,5946l2179.2,2180H4856.7
				l-2180-2180l2180-2180H7346.9z M4856.7,30.4L809.3,4077.8l1245.5,1245.5L7346.9,30.4C7346.9,30.4,4856.7,30.4,4856.7,30.4z"/>
		</defs>
		<clipPath id="SVGID_00000052818094909830671770000005787424086197183160_">
			<use xlink:href="#SVGID_00000078761722045438482950000010783853824448601237_"  style="overflow:visible;"/>
		</clipPath>
		<path style="clip-path:url(#SVGID_00000052818094909830671770000005787424086197183160_);fill:#03569B;" d="M3922.2,7191.5
			l934.5,933.7h2490.2L5167.7,5946L3922.2,7191.5z"/>
	</g>
	<g>
		<defs>
			<path id="SVGID_00000168820024992999274130000015274889654433813894_" d="M7346.9,3766L5167.7,5946l2179.2,2180H4856.7
				l-2180-2180l2180-2180H7346.9z M4856.7,30.4L809.3,4077.8l1245.5,1245.5L7346.9,30.4C7346.9,30.4,4856.7,30.4,4856.7,30.4z"/>
		</defs>
		<clipPath id="SVGID_00000027598115315943989690000004578543245497839798_">
			<use xlink:href="#SVGID_00000168820024992999274130000015274889654433813894_"  style="overflow:visible;"/>
		</clipPath>
		
			<linearGradient id="SVGID_00000116942279597247717780000017290712322411380876_" gradientUnits="userSpaceOnUse" x1="69330.5078" y1="-112200.2109" x2="70258.1094" y2="-111272.6094" gradientTransform="matrix(6.161500e-02 0 0 -6.161500e-02 13.799 518.5052)">
			<stop  offset="0" style="stop-color:#1A237E;stop-opacity:0.4"/>
			<stop  offset="1" style="stop-color:#1A237E;stop-opacity:0"/>
		</linearGradient>
		
			<path style="clip-path:url(#SVGID_00000027598115315943989690000004578543245497839798_);fill:url(#SVGID_00000116942279597247717780000017290712322411380876_);" d="
			M5769.4,6551.6L5167.7,5946L3922.2,7191.5L5769.4,6551.6z"/>
	</g>
	<g>
		<defs>
			<path id="SVGID_00000098937353360970839790000012069416664896444032_" d="M7346.9,3766L5167.7,5946l2179.2,2180H4856.7
				l-2180-2180l2180-2180H7346.9z M4856.7,30.4L809.3,4077.8l1245.5,1245.5L7346.9,30.4C7346.9,30.4,4856.7,30.4,4856.7,30.4z"/>
		</defs>
		<clipPath id="SVGID_00000116209765514539666510000012604216882688763564_">
			<use xlink:href="#SVGID_00000098937353360970839790000012069416664896444032_"  style="overflow:visible;"/>
		</clipPath>
		<g style="clip-path:url(#SVGID_00000116209765514539666510000012604216882688763564_);">
			<path class="st6" d="M2677.4,5945.6L3922.9,4700l1245.6,1245.5L3922.9,7191.1L2677.4,5945.6z"/>
		</g>
	</g>
	
		<radialGradient id="SVGID_00000077289325939381109370000002852299648041923748_" cx="181082.3594" cy="85301.5156" r="39615.9141" gradientTransform="matrix(1.540375e-02 0 0 1.540375e-02 -1796.3779 -731.8391)" gradientUnits="userSpaceOnUse">
		<stop  offset="0" style="stop-color:#FFFFFF;stop-opacity:0.1"/>
		<stop  offset="1" style="stop-color:#FFFFFF;stop-opacity:0"/>
	</radialGradient>
	<path style="fill:url(#SVGID_00000077289325939381109370000002852299648041923748_);" d="M7346.9,3766L5167.7,5946l2179.2,2180
		H4856.7l-2180-2180l2180-2180H7346.9z M4856.7,30.4L809.3,4077.8l1245.5,1245.5L7346.9,30.4C7346.9,30.4,4856.7,30.4,4856.7,30.4z"
		/>
</g>
</svg>
