<svg xmlns="http://www.w3.org/2000/svg" version="1.1" xmlns:xlink="http://www.w3.org/1999/xlink" xmlns:svgjs="http://svgjs.com/svgjs" width="512" height="512" x="0" y="0" viewBox="0 0 682.66669 682.66669" style="enable-background:new 0 0 512 512" xml:space="preserve" class=""><g><defs id="defs598"><clipPath clipPathUnits="userSpaceOnUse" id="clipPath608"><path d="M 0,512 H 512 V 0 H 0 Z" id="path606" fill="#000000" data-original="#000000"></path></clipPath></defs><g id="g600" transform="matrix(1.3333333,0,0,-1.3333333,0,682.66667)"><g id="g602"><g id="g604" clip-path="url(#clipPath608)"><g id="g610" transform="translate(45.6426,138.5696)"><path d="m 0,0 c -19.514,34.714 -30.643,74.772 -30.643,117.43 0,132.549 108.452,241 241,241 132.549,0 241,-108.451 241,-241 0,-132.548 -108.451,-241 -241,-241 -42.658,0 -82.716,11.13 -117.43,30.643 l -123.57,-30.643 z" style="stroke:#000000;stroke-width:30;stroke-linecap:round;stroke-linejoin:round;stroke-miterlimit:10;stroke-dasharray:none;stroke-opacity:1" id="path612" fill="none" stroke="#000000" stroke-width="30" stroke-linecap="round" stroke-linejoin="round" stroke-miterlimit="10" stroke-dasharray="none" stroke-opacity="" data-original="#000000" class=""></path></g><g id="g614" transform="translate(227.7354,227.7358)"><path d="m 0,0 c -9.947,9.979 -49.872,54.285 -35.344,68.813 3.993,3.993 19.959,14.899 26.188,21.128 21.213,21.213 -3.125,47.477 -18.732,63.084 -1.275,1.275 -25.3,27.132 -57.196,-4.765 -57.025,-57.025 24.258,-159.275 49.042,-184.302 25.027,-24.785 127.277,-106.068 184.303,-49.043 31.897,31.897 6.039,55.922 4.764,57.196 C 137.419,-12.282 111.154,12.056 89.941,-9.157 83.713,-15.386 72.807,-31.351 68.813,-35.344 54.285,-49.873 9.979,-9.948 0,0 Z" style="stroke:#000000;stroke-width:30;stroke-linecap:butt;stroke-linejoin:miter;stroke-miterlimit:10;stroke-dasharray:none;stroke-opacity:1" id="path616" fill="none" stroke="#000000" stroke-width="30" stroke-linecap="butt" stroke-linejoin="miter" stroke-miterlimit="10" stroke-dasharray="none" stroke-opacity="" data-original="#000000" class=""></path></g></g></g></g></g></svg>